<svg width="50" height="40" viewBox="0 0 50 40" fill="none" xmlns="http://www.w3.org/2000/svg">
<path d="M11.25 37.5C5.03906 37.5 0 32.4609 0 26.25C0 21.3438 3.14062 17.1719 7.51562 15.6328C7.50781 15.4219 7.5 15.2109 7.5 15C7.5 8.09375 13.0938 2.5 20 2.5C24.6328 2.5 28.6719 5.01562 30.8359 8.76562C32.0234 7.96875 33.4609 7.5 35 7.5C39.1406 7.5 42.5 10.8594 42.5 15C42.5 15.9531 42.3203 16.8594 42 17.7031C46.5625 18.625 50 22.6641 50 27.5C50 33.0234 45.5234 37.5 40 37.5H11.25ZM17.4219 20.5469C16.6875 21.2812 16.6875 22.4688 17.4219 23.1953C18.1562 23.9219 19.3438 23.9297 20.0703 23.1953L23.1172 20.1484V30.625C23.1172 31.6641 23.9531 32.5 24.9922 32.5C26.0312 32.5 26.8672 31.6641 26.8672 30.625V20.1484L29.9141 23.1953C30.6484 23.9297 31.8359 23.9297 32.5625 23.1953C33.2891 22.4609 33.2969 21.2734 32.5625 20.5469L26.3125 14.2969C25.5781 13.5625 24.3906 13.5625 23.6641 14.2969L17.4141 20.5469H17.4219Z" fill="black"/>
</svg>
