<svg width="46" height="53" viewBox="0 0 46 53" fill="none" xmlns="http://www.w3.org/2000/svg">
<path d="M0 8.28125C0 5.53809 2.20759 3.3125 4.92857 3.3125H14.7857C17.5067 3.3125 19.7143 5.53809 19.7143 8.28125V18.2188C19.7143 20.9619 17.5067 23.1875 14.7857 23.1875H4.92857C2.20759 23.1875 0 20.9619 0 18.2188V8.28125ZM6.57143 9.9375V16.5625H13.1429V9.9375H6.57143ZM0 34.7812C0 32.0381 2.20759 29.8125 4.92857 29.8125H14.7857C17.5067 29.8125 19.7143 32.0381 19.7143 34.7812V44.7188C19.7143 47.4619 17.5067 49.6875 14.7857 49.6875H4.92857C2.20759 49.6875 0 47.4619 0 44.7188V34.7812ZM6.57143 36.4375V43.0625H13.1429V36.4375H6.57143ZM31.2143 3.3125H41.0714C43.7924 3.3125 46 5.53809 46 8.28125V18.2188C46 20.9619 43.7924 23.1875 41.0714 23.1875H31.2143C28.4933 23.1875 26.2857 20.9619 26.2857 18.2188V8.28125C26.2857 5.53809 28.4933 3.3125 31.2143 3.3125ZM39.4286 9.9375H32.8571V16.5625H39.4286V9.9375ZM26.2857 31.4688C26.2857 30.5578 27.025 29.8125 27.9286 29.8125H34.5C35.4036 29.8125 36.1429 30.5578 36.1429 31.4688C36.1429 32.3797 36.8821 33.125 37.7857 33.125H41.0714C41.975 33.125 42.7143 32.3797 42.7143 31.4688C42.7143 30.5578 43.4536 29.8125 44.3571 29.8125C45.2607 29.8125 46 30.5578 46 31.4688V41.4062C46 42.3172 45.2607 43.0625 44.3571 43.0625H37.7857C36.8821 43.0625 36.1429 42.3172 36.1429 41.4062C36.1429 40.4953 35.4036 39.75 34.5 39.75C33.5964 39.75 32.8571 40.4953 32.8571 41.4062V48.0312C32.8571 48.9422 32.1179 49.6875 31.2143 49.6875H27.9286C27.025 49.6875 26.2857 48.9422 26.2857 48.0312V31.4688ZM37.7857 49.6875C37.35 49.6875 36.9321 49.513 36.624 49.2024C36.3159 48.8918 36.1429 48.4705 36.1429 48.0312C36.1429 47.592 36.3159 47.1707 36.624 46.8601C36.9321 46.5495 37.35 46.375 37.7857 46.375C38.2214 46.375 38.6393 46.5495 38.9474 46.8601C39.2555 47.1707 39.4286 47.592 39.4286 48.0312C39.4286 48.4705 39.2555 48.8918 38.9474 49.2024C38.6393 49.513 38.2214 49.6875 37.7857 49.6875ZM44.3571 49.6875C43.9214 49.6875 43.5036 49.513 43.1955 49.2024C42.8874 48.8918 42.7143 48.4705 42.7143 48.0312C42.7143 47.592 42.8874 47.1707 43.1955 46.8601C43.5036 46.5495 43.9214 46.375 44.3571 46.375C44.7929 46.375 45.2107 46.5495 45.5188 46.8601C45.8269 47.1707 46 47.592 46 48.0312C46 48.4705 45.8269 48.8918 45.5188 49.2024C45.2107 49.513 44.7929 49.6875 44.3571 49.6875Z" fill="black"/>
</svg>
