<svg width="48" height="38" viewBox="0 0 48 38" fill="none" xmlns="http://www.w3.org/2000/svg">
<g clip-path="url(#clip0_1_18)">
<path d="M19.2 0H43.2C45.8475 0 48 2.13008 48 4.75V21.375C48 23.9949 45.8475 26.125 43.2 26.125H19.2C16.5525 26.125 14.4 23.9949 14.4 21.375V4.75C14.4 2.13008 16.5525 0 19.2 0ZM35.7 7.91914C35.3625 7.42188 34.8 7.125 34.2 7.125C33.6 7.125 33.0375 7.42188 32.7 7.91914L28.5 14.1535L27.2025 12.543C26.8575 12.1199 26.34 11.875 25.8 11.875C25.26 11.875 24.735 12.1199 24.3975 12.543L19.5975 18.4805C19.1625 19.0148 19.08 19.7496 19.38 20.3656C19.68 20.9816 20.31 21.375 21 21.375H27H30.6H41.4C42.0675 21.375 42.675 21.0113 42.99 20.4324C43.305 19.8535 43.2675 19.1484 42.9 18.6066L35.7 7.91914ZM25.2 7.125C25.2 6.49511 24.9471 5.89102 24.4971 5.44562C24.047 5.00022 23.4365 4.75 22.8 4.75C22.1635 4.75 21.553 5.00022 21.1029 5.44562C20.6529 5.89102 20.4 6.49511 20.4 7.125C20.4 7.75489 20.6529 8.35898 21.1029 8.80438C21.553 9.24978 22.1635 9.5 22.8 9.5C23.4365 9.5 24.047 9.24978 24.4971 8.80438C24.9471 8.35898 25.2 7.75489 25.2 7.125ZM4.8 9.5H12V28.5V30.875C12 32.1887 13.0725 33.25 14.4 33.25H24C25.3275 33.25 26.4 32.1887 26.4 30.875V28.5H38.4V33.25C38.4 35.8699 36.2475 38 33.6 38H4.8C2.1525 38 0 35.8699 0 33.25V14.25C0 11.6301 2.1525 9.5 4.8 9.5ZM5.4 14.25C4.74 14.25 4.2 14.7844 4.2 15.4375V16.625C4.2 17.2781 4.74 17.8125 5.4 17.8125H6.6C7.26 17.8125 7.8 17.2781 7.8 16.625V15.4375C7.8 14.7844 7.26 14.25 6.6 14.25H5.4ZM5.4 21.9688C4.74 21.9688 4.2 22.5031 4.2 23.1562V24.3438C4.2 24.9969 4.74 25.5312 5.4 25.5312H6.6C7.26 25.5312 7.8 24.9969 7.8 24.3438V23.1562C7.8 22.5031 7.26 21.9688 6.6 21.9688H5.4ZM5.4 29.6875C4.74 29.6875 4.2 30.2219 4.2 30.875V32.0625C4.2 32.7156 4.74 33.25 5.4 33.25H6.6C7.26 33.25 7.8 32.7156 7.8 32.0625V30.875C7.8 30.2219 7.26 29.6875 6.6 29.6875H5.4ZM30.6 30.875V32.0625C30.6 32.7156 31.14 33.25 31.8 33.25H33C33.66 33.25 34.2 32.7156 34.2 32.0625V30.875C34.2 30.2219 33.66 29.6875 33 29.6875H31.8C31.14 29.6875 30.6 30.2219 30.6 30.875Z" fill="black"/>
</g>
<defs>
<clipPath id="clip0_1_18">
<rect width="48" height="38" fill="white"/>
</clipPath>
</defs>
</svg>
