<svg width="50" height="40" viewBox="0 0 50 40" fill="none" xmlns="http://www.w3.org/2000/svg">
<path d="M4.23438 15.8516C9.625 10.6797 16.9375 7.5 25 7.5C33.0625 7.5 40.375 10.6797 45.7656 15.8516C46.7656 16.8047 48.3438 16.7734 49.2969 15.7812C50.25 14.7891 50.2187 13.2031 49.2266 12.25C42.9453 6.21094 34.4062 2.5 25 2.5C15.5938 2.5 7.05469 6.21094 0.765626 12.2422C-0.226561 13.2031 -0.257811 14.7812 0.695314 15.7812C1.64844 16.7812 3.23438 16.8125 4.22656 15.8516H4.23438ZM25 20C29.4375 20 33.4844 21.6484 36.5781 24.375C37.6172 25.2891 39.1953 25.1875 40.1094 24.1562C41.0234 23.125 40.9219 21.5391 39.8906 20.625C35.9219 17.125 30.7031 15 25 15C19.2969 15 14.0781 17.125 10.1172 20.625C9.07813 21.5391 8.98438 23.1172 9.89844 24.1562C10.8125 25.1953 12.3906 25.2891 13.4297 24.375C16.5156 21.6484 20.5625 20 25.0078 20H25ZM30 32.5C30 31.1739 29.4732 29.9021 28.5355 28.9645C27.5979 28.0268 26.3261 27.5 25 27.5C23.6739 27.5 22.4022 28.0268 21.4645 28.9645C20.5268 29.9021 20 31.1739 20 32.5C20 33.8261 20.5268 35.0979 21.4645 36.0355C22.4022 36.9732 23.6739 37.5 25 37.5C26.3261 37.5 27.5979 36.9732 28.5355 36.0355C29.4732 35.0979 30 33.8261 30 32.5Z" fill="black"/>
</svg>
